<?xml version="1.0" encoding="UTF-8"?>
<svg id="OBJECTS" xmlns="http://www.w3.org/2000/svg" xmlns:xlink="http://www.w3.org/1999/xlink" viewBox="0 0 712.85 245.11">
  <defs>
    <style>
      .cls-1, .cls-2 {
        fill: #c9c8c3;
      }

      .cls-3 {
        letter-spacing: -.02em;
      }

      .cls-4 {
        clip-path: url(#clippath-2);
      }

      .cls-5 {
        letter-spacing: 0em;
      }

      .cls-6 {
        filter: url(#drop-shadow-1);
      }

      .cls-7 {
        clip-path: url(#clippath-1);
      }

      .cls-8 {
        letter-spacing: -.05em;
      }

      .cls-9 {
        letter-spacing: -.02em;
      }

      .cls-10 {
        fill: #26b2a7;
      }

      .cls-11 {
        clip-path: url(#clippath);
      }

      .cls-12 {
        clip-path: url(#clippath-3);
      }

      .cls-2 {
        font-family: Montserrat-Regular, Montserrat;
        font-size: 54px;
      }
    </style>
    <filter id="drop-shadow-1" filterUnits="userSpaceOnUse">
      <feOffset dx="0" dy="2"/>
      <feGaussianBlur result="blur" stdDeviation="4"/>
      <feFlood flood-color="#727069" flood-opacity=".63"/>
      <feComposite in2="blur" operator="in"/>
      <feComposite in="SourceGraphic"/>
    </filter>
    <clipPath id="clippath">
      <path class="cls-1" d="m436.54,89.23c-.53,1.17-.64,2.17-.35,2.98.29.82.8,1.45,1.54,1.89.73.44,1.45.66,2.15.66h.79v.88h-19.57v-.88h.79c1.35,0,2.73-.42,4.17-1.27,1.43-.85,2.62-2.27,3.56-4.26h6.93Zm18.87-57.14v13.69l-21.59,49.6h-7.11l22.91-50.21c.29-.53.69-1.36,1.18-2.5.5-1.14,1.02-2.38,1.58-3.73.56-1.35,1.05-2.63,1.49-3.86.44-1.23.69-2.22.75-2.98h.79Zm7.2,44.59v4.39h-24.84v-4.39h24.84Zm-7.2-44.59l30.37,63.03h-21.07l-16.94-40.55,7.64-22.47Zm6.76,57.14h20.72c.99,1.99,2.19,3.41,3.6,4.26,1.41.85,2.78,1.27,4.13,1.27h.7v.88h-33.27v-.88h.79c1.17,0,2.21-.48,3.12-1.45.91-.97.98-2.33.22-4.08Z"/>
    </clipPath>
    <clipPath id="clippath-1">
      <path class="cls-1" d="m494.47,90.2v5.44h-8.34v-.88h1.14c1.4,0,2.63-.4,3.69-1.19s1.7-1.92,1.93-3.38h1.58Zm5.27-48.28h.61l3.77,10.53-5.62,43.19h-6.32l7.55-53.72Zm-.7,49.51c-.06.47.13,1.14.57,2.02.44.88,1.21,1.32,2.33,1.32h1.23v.88h-5.44l.88-4.21h.44Zm1.32-49.51l27.39,34.32-6.58,21.33-23.17-28.88,2.37-26.77Zm49.68,0l.7,11.15-25.63,35.64c-1.17,1.81-2.02,3.39-2.55,4.74-.53,1.35-.76,2.72-.7,4.12h-.7l-4.83-8.25,33.71-47.4Zm-9.92,49.51h.44l.88,4.21h-5.44v-.88h1.23c1.23,0,2.03-.42,2.41-1.27.38-.85.54-1.54.48-2.06Zm10.71-49.51l7.72,53.72h-17.82l-3.51-24.14,12.82-29.58h.79Zm5.27,48.28h1.67c.29,1.46.95,2.59,1.97,3.38,1.02.79,2.18,1.19,3.47,1.19h1.23v.88h-8.34v-5.44Z"/>
    </clipPath>
    <clipPath id="clippath-2">
      <path class="cls-1" d="m596.65,41.92c5.03,0,9.52.61,13.47,1.84,3.95,1.23,7.31,3.01,10.09,5.35,2.78,2.34,4.88,5.21,6.32,8.6,1.43,3.39,2.15,7.29,2.15,11.67s-.72,8.18-2.15,11.54c-1.44,3.37-3.54,6.22-6.32,8.56-2.78,2.34-6.14,4.12-10.09,5.35-3.95,1.23-8.44,1.84-13.47,1.84s-9.44-.61-13.39-1.84c-3.95-1.23-7.32-3.01-10.09-5.35-2.78-2.34-4.89-5.19-6.32-8.56-1.43-3.37-2.15-7.21-2.15-11.54s.72-8.28,2.15-11.67c1.43-3.39,3.54-6.26,6.32-8.6,2.78-2.34,6.14-4.13,10.09-5.35,3.95-1.23,8.41-1.84,13.39-1.84Zm0,50.82c3.1,0,5.69-.92,7.77-2.76,2.08-1.84,3.64-4.51,4.7-7.99,1.05-3.48,1.58-7.68,1.58-12.6s-.53-9.22-1.58-12.73c-1.05-3.51-2.62-6.19-4.7-8.03-2.08-1.84-4.67-2.76-7.77-2.76s-5.6.92-7.68,2.76c-2.08,1.84-3.66,4.52-4.74,8.03-1.08,3.51-1.62,7.75-1.62,12.73s.54,9.12,1.62,12.6c1.08,3.48,2.66,6.14,4.74,7.99,2.08,1.84,4.64,2.76,7.68,2.76Z"/>
    </clipPath>
    <clipPath id="clippath-3">
      <path class="cls-1" d="m638.52,48.41h-.26c0-1.35-.44-2.44-1.32-3.29-.88-.85-1.9-1.27-3.07-1.27h-1.05v-.88h5.62l.09,5.44Zm0,41.78l-.09,5.44h-5.62v-.88h.97c1.17,0,2.21-.44,3.12-1.32.91-.88,1.36-1.96,1.36-3.25h.26Zm17.03-47.23v52.67h-17.29v-52.67h17.29Zm7.46,0c2.22,0,4.5.19,6.85.57,2.34.38,4.5,1.07,6.5,2.06,1.99,1,3.6,2.44,4.83,4.35,1.23,1.9,1.84,4.4,1.84,7.5,0,1.76-.31,3.63-.92,5.62-.61,1.99-1.73,3.76-3.34,5.31-1.61,1.55-3.94,2.59-6.98,3.12,2.22.59,4.18,1.7,5.88,3.34,1.7,1.64,2.92,3.13,3.69,4.48.41.7.86,1.57,1.36,2.59.5,1.03,1.1,2.15,1.8,3.38.7,1.23,1.49,2.55,2.37,3.95,1.11,1.7,2.08,2.94,2.9,3.73.82.79,1.61,1.29,2.37,1.49.76.21,1.61.31,2.55.31v.88h-10.36c-3.1,0-5.79-.13-8.08-.4-2.28-.26-4.32-1.02-6.1-2.28-1.79-1.26-3.53-3.32-5.22-6.19-.64-1.11-1.18-2.15-1.62-3.12-.44-.97-.8-1.92-1.1-2.85-.29-.94-.54-1.9-.75-2.9s-.42-2.02-.66-3.07c-.41-2.05-.94-3.38-1.58-3.99-.64-.62-1.08-.95-1.32-1.01v-.7h.44c.94,0,1.87-.29,2.81-.88.94-.58,1.76-1.57,2.46-2.94.7-1.37,1.17-3.29,1.4-5.75,0-.18.03-.5.09-.97.06-.47.06-1.08,0-1.84-.12-2.52-.56-4.43-1.32-5.75-.76-1.32-1.62-2.24-2.59-2.76-.97-.53-1.83-.83-2.59-.92-.76-.09-1.2-.13-1.32-.13h-1.84c-.06,0-.13-.35-.22-1.05-.09-.7-.22-1.75-.4-3.16h8.16Zm-7.64,47.23h.18c0,1.52.53,2.66,1.58,3.42,1.05.76,2.08,1.14,3.07,1.14h.79v.88h-5.53l-.09-5.44Z"/>
    </clipPath>
  </defs>
  <g class="cls-6">
    <path class="cls-10" d="m674.05,128.03c-10.99-2.65-22.36-5.4-44.98-5.4s-33.99,2.74-44.98,5.4c-10.05,2.43-19.54,4.72-38.81,4.72s-28.76-2.29-38.81-4.72c-10.99-2.65-22.35-5.4-44.97-5.4s-33.99,2.74-44.98,5.4c-10.05,2.43-19.54,4.72-38.81,4.72s-28.76-2.29-38.8-4.72c-10.99-2.65-22.35-5.4-44.97-5.4s-33.98,2.74-44.97,5.4c-10.05,2.43-19.54,4.72-38.8,4.72s-28.75-2.29-38.8-4.72c-10.99-2.65-22.35-5.4-44.97-5.4s-33.98,2.74-44.97,5.4c-10.05,2.43-19.54,4.72-38.8,4.72-6.7,0-12.2-.28-16.97-.75,1.34,1.56,2.83,3.11,4.48,4.64,3.77.2,7.89.32,12.49.32,22.62,0,33.98-2.74,44.97-5.4,10.05-2.43,19.54-4.72,38.8-4.72s28.75,2.29,38.8,4.72c10.99,2.65,22.35,5.4,44.97,5.4s33.98-2.74,44.97-5.4c10.05-2.43,19.54-4.72,38.8-4.72s28.76,2.29,38.8,4.72c10.99,2.65,22.35,5.4,44.97,5.4s33.99-2.74,44.98-5.4c10.05-2.43,19.54-4.72,38.81-4.72s28.75,2.29,38.8,4.72c10.99,2.65,22.35,5.4,44.98,5.4s33.99-2.74,44.98-5.4c10.05-2.43,19.54-4.72,38.81-4.72s28.76,2.29,38.81,4.72c6.71,1.62,13.57,3.27,23.04,4.31,1.38-1.32,2.64-2.65,3.78-3.99-8.34-.89-14.39-2.34-20.65-3.86Z"/>
    <g>
      <path class="cls-1" d="m62.07,32.96c7.55,0,14.06,1.27,19.53,3.82,5.47,2.54,9.67,6.19,12.6,10.93,2.93,4.74,4.39,10.48,4.39,17.21s-1.46,12.39-4.39,17.16c-2.93,4.77-7.13,8.43-12.6,10.97-5.47,2.55-11.98,3.82-19.53,3.82s-14.04-1.27-19.49-3.82-9.63-6.19-12.55-10.93c-2.93-4.74-4.39-10.47-4.39-17.21s1.46-12.39,4.39-17.16c2.93-4.77,7.11-8.43,12.55-10.97,5.44-2.55,11.94-3.82,19.49-3.82Zm0,59.52c3.63,0,6.72-1.1,9.26-3.29,2.55-2.19,4.49-5.34,5.84-9.44,1.35-4.1,2.02-9.04,2.02-14.83s-.67-10.74-2.02-14.83c-1.35-4.09-3.29-7.24-5.84-9.44-2.55-2.2-5.63-3.29-9.26-3.29s-6.63,1.1-9.17,3.29c-2.55,2.19-4.49,5.34-5.84,9.44-1.35,4.1-2.02,9.04-2.02,14.83s.67,10.74,2.02,14.83c1.35,4.1,3.29,7.24,5.84,9.44,2.55,2.19,5.6,3.29,9.17,3.29Z"/>
      <path class="cls-1" d="m108.33,48.41h-.26c0-1.35-.45-2.44-1.36-3.29-.91-.85-1.98-1.27-3.2-1.27h-.97v-.88h5.79v5.44Zm0,41.78l-.09,5.44h-5.71v-.88h.97c1.23,0,2.3-.44,3.2-1.32.91-.88,1.36-1.96,1.36-3.25h.26Zm16.94-47.23v52.67h-17.21v-52.67h17.21Zm-.18,5.44v-5.44h5.79v.88h-.97c-1.29,0-2.37.43-3.25,1.27-.88.85-1.35,1.95-1.4,3.29h-.18Zm18.61,43.19l3.6,4.04h-22.21v-4.04h18.61Zm6.32-14.4l-2.55,18.43h-16.33l2.55-4.04c2.28,0,4.46-.57,6.54-1.71,2.08-1.14,3.91-2.78,5.49-4.92,1.58-2.13,2.72-4.72,3.42-7.77h.88Z"/>
      <path class="cls-1" d="m163.02,90.28c-.64,1.46-.56,2.58.26,3.33.82.76,1.73,1.14,2.72,1.14h.61v.88h-18.08v-.88h.7c1.17,0,2.4-.34,3.69-1.01,1.29-.67,2.31-1.83,3.07-3.47h7.02Zm16.24-50.47l-.09,13.43-18.43,42.13h-7.11l20.37-43.89c.23-.58.58-1.39,1.05-2.41.47-1.02.95-2.14,1.45-3.34.5-1.2.95-2.33,1.36-3.38.41-1.05.64-1.9.7-2.54h.7Zm5.88,40.73v3.95h-21.86v-3.95h21.86Zm-5.88-40.73l27.21,55.39h-19.93l-14.83-33.88,7.55-21.51Zm5.09,50.47h19.66c.82,1.64,1.87,2.79,3.16,3.47,1.29.67,2.52,1.01,3.69,1.01h.7v.88h-30.9v-.88h.7c.99,0,1.9-.38,2.72-1.14.82-.76.91-1.87.26-3.33Z"/>
      <path class="cls-1" d="m230.61,41.92c.88,0,2.28.04,4.21.13,1.93.09,3.96.22,6.1.39,2.14.18,4.02.37,5.66.57,1.64.21,2.63.4,2.98.57l-1.93,11.94h-.53c0-2.81-1.03-5.09-3.07-6.85-2.05-1.76-4.83-2.63-8.34-2.63-2.75,0-4.89.51-6.41,1.54-1.52,1.02-2.4,2.44-2.63,4.26-.12,1.29.16,2.36.83,3.2.67.85,1.59,1.57,2.76,2.15,1.17.59,2.37,1.14,3.6,1.67l11.32,5.18c2.93,1.29,5.3,3.2,7.11,5.75,1.81,2.55,2.55,5.84,2.19,9.88-.29,3.75-1.4,6.89-3.34,9.44-1.93,2.55-4.62,4.45-8.08,5.71-3.45,1.26-7.61,1.89-12.46,1.89-3.04,0-5.71-.23-7.99-.7s-4.16-1.08-5.62-1.84c-1.46-.76-2.54-1.58-3.25-2.46-.64-1.35-.91-2.98-.79-4.92.12-1.93.5-3.82,1.14-5.66.64-1.84,1.4-3.32,2.28-4.43h.53c-.12,2.63.42,5.17,1.62,7.59,1.2,2.43,3.01,4.42,5.44,5.97,2.43,1.55,5.37,2.36,8.82,2.41,3.28.06,5.63-.64,7.07-2.11,1.43-1.46,2.15-3.04,2.15-4.74s-.69-3.13-2.06-4.48c-1.38-1.35-3.61-2.69-6.72-4.04l-9.22-4.3c-3.75-1.58-6.51-3.91-8.29-6.98-1.79-3.07-2.38-6.57-1.8-10.49.47-3.04,1.42-5.57,2.85-7.59,1.43-2.02,3.32-3.52,5.66-4.52,2.34-.99,5.06-1.49,8.16-1.49Zm19.14.79l-.26,1.49h-11.41v-1.49h11.67Z"/>
      <path class="cls-1" d="m289.24,40.6h-.26c0-1.52-.56-2.82-1.67-3.91-1.11-1.08-2.43-1.62-3.95-1.62h-1.05l-.09-.88h7.02v6.41Zm0,48.63v6.41h-7.02v-.88h1.14c1.52,0,2.82-.54,3.91-1.62,1.08-1.08,1.65-2.38,1.71-3.91h.26Zm17.73-55.04v61.45h-18v-61.45h18Zm8.51,0c7.31,0,13.59,1.21,18.83,3.64,5.24,2.43,9.25,5.94,12.03,10.53,2.78,4.59,4.17,10.11,4.17,16.55s-1.39,11.95-4.17,16.55c-2.78,4.59-6.79,8.11-12.03,10.53-5.24,2.43-11.51,3.64-18.83,3.64h-22.3l-.09-4.39h20.63c3.69,0,6.83-1.05,9.44-3.16,2.6-2.11,4.59-5.12,5.97-9.04,1.37-3.92,2.06-8.63,2.06-14.13s-.69-10.21-2.06-14.13c-1.38-3.92-3.37-6.93-5.97-9.04-2.6-2.11-5.75-3.16-9.44-3.16h-21.51v-4.39h23.26Z"/>
      <path class="cls-1" d="m359.82,48.5h-.26c0-1.34-.45-2.46-1.36-3.33-.91-.88-1.97-1.32-3.2-1.32h-.96v-.88h5.71l.09,5.53Zm0,41.7l-.09,5.44h-5.71v-.88h.96c1.23,0,2.3-.44,3.2-1.32.91-.88,1.36-1.96,1.36-3.25h.26Zm16.94-47.23v52.67h-17.2v-52.67h17.2Zm20.19,0v4.04h-20.36v-4.04h20.36Zm-3.86,24.67v4.12h-16.5v-4.12h16.5Zm2.2,23.96l3.51,4.04h-22.21v-4.04h18.7Zm6.14-14.4l-2.46,18.43h-16.33l2.55-4.04c2.28,0,4.46-.57,6.54-1.71,2.08-1.14,3.91-2.78,5.49-4.92,1.58-2.13,2.72-4.72,3.42-7.77h.79Zm-8.34-18.78v9.39h-9.57v-.18c2.57-.06,4.67-.94,6.28-2.63,1.61-1.7,2.41-3.83,2.41-6.41v-.17h.88Zm0,13.17v9.48h-.88v-.35c0-2.57-.8-4.7-2.41-6.36-1.61-1.67-3.7-2.53-6.28-2.59v-.17h9.57Zm3.86-24.75v11.41h-.88v-.44c0-3.39-.88-6.03-2.63-7.9-1.76-1.87-4.3-2.84-7.64-2.9v-.17h11.15Zm0-5.18v2.11l-8.69-.79c1.58,0,3.26-.16,5.05-.48,1.78-.32,3-.6,3.64-.83Z"/>
      <g>
        <path class="cls-1" d="m436.54,89.23c-.53,1.17-.64,2.17-.35,2.98.29.82.8,1.45,1.54,1.89.73.44,1.45.66,2.15.66h.79v.88h-19.57v-.88h.79c1.35,0,2.73-.42,4.17-1.27,1.43-.85,2.62-2.27,3.56-4.26h6.93Zm18.87-57.14v13.69l-21.59,49.6h-7.11l22.91-50.21c.29-.53.69-1.36,1.18-2.5.5-1.14,1.02-2.38,1.58-3.73.56-1.35,1.05-2.63,1.49-3.86.44-1.23.69-2.22.75-2.98h.79Zm7.2,44.59v4.39h-24.84v-4.39h24.84Zm-7.2-44.59l30.37,63.03h-21.07l-16.94-40.55,7.64-22.47Zm6.76,57.14h20.72c.99,1.99,2.19,3.41,3.6,4.26,1.41.85,2.78,1.27,4.13,1.27h.7v.88h-33.27v-.88h.79c1.17,0,2.21-.48,3.12-1.45.91-.97.98-2.33.22-4.08Z"/>
        <g class="cls-11">
          <g>
            <ellipse class="cls-1" cx="563.94" cy="53.34" rx="163.17" ry="113.55"/>
            <g>
              <path class="cls-1" d="m629.49,74.04c0-37.06-30.05-69.97-67.11-69.97s-67.75,38.63-67.75,75.7l40.84-11.79,36.18,11.79,35.23-12.08,22.61,6.35Z"/>
              <g>
                <path class="cls-1" d="m701.42,71.94c-4.85-3.15-9.86-6.4-19.85-6.4s-15,3.25-19.85,6.4c-4.43,2.88-8.62,5.6-17.12,5.6s-12.69-2.72-17.12-5.6c-4.85-3.15-9.86-6.4-19.84-6.4s-15,3.25-19.85,6.4c-4.43,2.88-8.62,5.6-17.12,5.6s-12.69-2.72-17.12-5.6c-4.85-3.15-9.86-6.4-19.84-6.4s-15,3.25-19.84,6.4c-4.43,2.88-8.62,5.6-17.12,5.6s-12.69-2.72-17.12-5.6c-4.85-3.15-9.86-6.4-19.84-6.4s-14.99,3.25-19.84,6.4c-4.43,2.88-8.62,5.6-17.12,5.6-2.96,0-5.38-.33-7.49-.88.59,1.85,1.25,3.69,1.98,5.5,1.66.24,3.48.38,5.51.38,9.98,0,15-3.25,19.84-6.4,4.43-2.88,8.62-5.6,17.12-5.6s12.69,2.72,17.12,5.6c4.85,3.15,9.86,6.4,19.84,6.4s15-3.25,19.84-6.4c4.43-2.88,8.62-5.6,17.12-5.6s12.69,2.72,17.12,5.6c4.85,3.15,9.86,6.4,19.84,6.4s15-3.25,19.84-6.4c4.43-2.88,8.62-5.6,17.12-5.6s12.69,2.72,17.12,5.6c4.85,3.15,9.86,6.4,19.84,6.4s15-3.25,19.85-6.4c4.43-2.88,8.62-5.6,17.12-5.6s12.69,2.72,17.12,5.6c2.96,1.92,5.99,3.88,10.17,5.12.61-1.56,1.16-3.14,1.67-4.73-3.68-1.05-6.35-2.78-9.11-4.58Z"/>
                <path class="cls-1" d="m701.42,81.17c-4.85-3.15-9.86-6.4-19.85-6.4s-15,3.25-19.85,6.4c-4.43,2.88-8.62,5.6-17.12,5.6s-12.69-2.72-17.12-5.6c-4.85-3.15-9.86-6.4-19.84-6.4s-15,3.25-19.85,6.4c-4.43,2.88-8.62,5.6-17.12,5.6s-12.69-2.72-17.12-5.6c-4.85-3.15-9.86-6.4-19.84-6.4s-15,3.25-19.84,6.4c-4.43,2.88-8.62,5.6-17.12,5.6s-12.69-2.72-17.12-5.6c-4.85-3.15-9.86-6.4-19.84-6.4s-14.99,3.25-19.84,6.4c-4.43,2.88-8.62,5.6-17.12,5.6-1.29,0-2.47-.07-3.58-.19.82,1.74,1.7,3.47,2.65,5.17.31,0,.61.02.93.02,9.98,0,15-3.25,19.84-6.4,4.43-2.88,8.62-5.6,17.12-5.6s12.69,2.72,17.12,5.6c4.85,3.15,9.86,6.4,19.84,6.4s15-3.25,19.84-6.4c4.43-2.88,8.62-5.6,17.12-5.6s12.69,2.72,17.12,5.6c4.85,3.15,9.86,6.4,19.84,6.4s15-3.25,19.84-6.4c4.43-2.88,8.62-5.6,17.12-5.6s12.69,2.72,17.12,5.6c4.85,3.15,9.86,6.4,19.84,6.4s15-3.25,19.85-6.4c4.43-2.88,8.62-5.6,17.12-5.6s12.69,2.72,17.12,5.6c2.05,1.33,4.14,2.68,6.61,3.8.77-1.49,1.49-3,2.16-4.52-2.22-.98-4.11-2.21-6.05-3.47Z"/>
                <path class="cls-1" d="m701.42,90.39c-4.85-3.15-9.86-6.4-19.85-6.4s-15,3.25-19.85,6.4c-4.43,2.88-8.62,5.6-17.12,5.6s-12.69-2.72-17.12-5.6c-4.85-3.15-9.86-6.4-19.84-6.4s-15,3.25-19.85,6.4c-4.43,2.88-8.62,5.6-17.12,5.6s-12.69-2.72-17.12-5.6c-4.85-3.15-9.86-6.4-19.84-6.4s-15,3.25-19.84,6.4c-4.43,2.88-8.62,5.6-17.12,5.6s-12.69-2.72-17.12-5.6c-4.85-3.15-9.86-6.4-19.84-6.4s-14.99,3.25-19.84,6.4c-4.15,2.69-8.09,5.25-15.55,5.56,1.01,1.6,2.08,3.19,3.2,4.75,6.94-.85,11.07-3.52,15.07-6.12,4.43-2.88,8.62-5.6,17.12-5.6s12.69,2.72,17.12,5.6c4.85,3.15,9.86,6.4,19.84,6.4s15-3.25,19.84-6.4c4.43-2.88,8.62-5.6,17.12-5.6s12.69,2.72,17.12,5.6c4.85,3.15,9.86,6.4,19.84,6.4s15-3.25,19.84-6.4c4.43-2.88,8.62-5.6,17.12-5.6s12.69,2.72,17.12,5.6c4.85,3.15,9.86,6.4,19.84,6.4s15-3.25,19.85-6.4c4.43-2.88,8.62-5.6,17.12-5.6s12.69,2.72,17.12,5.6c.84.55,1.69,1.09,2.57,1.63.9-1.42,1.76-2.85,2.57-4.29-.81-.5-1.61-1.01-2.41-1.53Z"/>
                <path class="cls-1" d="m681.57,93.21c-9.98,0-15,3.25-19.85,6.4-4.43,2.88-8.62,5.6-17.12,5.6s-12.69-2.72-17.12-5.6c-4.85-3.15-9.86-6.4-19.84-6.4s-15,3.25-19.85,6.4c-4.43,2.88-8.62,5.6-17.12,5.6s-12.69-2.72-17.12-5.6c-4.85-3.15-9.86-6.4-19.84-6.4s-15,3.25-19.84,6.4c-4.43,2.88-8.62,5.6-17.12,5.6s-12.69-2.72-17.12-5.6c-4.85-3.15-9.86-6.4-19.84-6.4s-14.99,3.25-19.84,6.4c-2.89,1.88-5.68,3.68-9.63,4.71,1.12,1.41,2.27,2.81,3.48,4.18,3.52-1.24,6.22-2.98,8.87-4.7,4.43-2.88,8.62-5.6,17.12-5.6s12.69,2.72,17.12,5.6c4.85,3.15,9.86,6.4,19.84,6.4s15-3.25,19.84-6.4c4.43-2.88,8.62-5.6,17.12-5.6s12.69,2.72,17.12,5.6c4.85,3.15,9.86,6.4,19.84,6.4s15-3.25,19.84-6.4c4.43-2.88,8.62-5.6,17.12-5.6s12.69,2.72,17.12,5.6c4.85,3.15,9.86,6.4,19.84,6.4s15-3.25,19.85-6.4c4.43-2.88,8.62-5.6,17.12-5.6,7.31,0,11.43,2.01,15.25,4.4,1.01-1.34,1.99-2.7,2.92-4.07-4.38-2.77-9.33-5.32-18.17-5.32Z"/>
                <path class="cls-1" d="m681.57,102.44c-9.98,0-15,3.25-19.85,6.4-4.43,2.88-8.62,5.6-17.12,5.6s-12.69-2.72-17.12-5.6c-4.85-3.15-9.86-6.4-19.84-6.4s-15,3.25-19.85,6.4c-4.43,2.88-8.62,5.6-17.12,5.6s-12.69-2.72-17.12-5.6c-4.85-3.15-9.86-6.4-19.84-6.4s-15,3.25-19.84,6.4c-4.43,2.88-8.62,5.6-17.12,5.6s-12.69-2.72-17.12-5.6c-4.85-3.15-9.86-6.4-19.84-6.4s-14.99,3.25-19.84,6.4c-1.23.8-2.45,1.59-3.75,2.31,1.17,1.25,2.37,2.48,3.61,3.69.98-.59,1.92-1.2,2.85-1.81,4.43-2.88,8.62-5.6,17.12-5.6s12.69,2.72,17.12,5.6c4.85,3.15,9.86,6.4,19.84,6.4s15-3.25,19.84-6.4c4.43-2.88,8.62-5.6,17.12-5.6s12.69,2.72,17.12,5.6c4.85,3.15,9.86,6.4,19.84,6.4s15-3.25,19.84-6.4c4.43-2.88,8.62-5.6,17.12-5.6s12.69,2.72,17.12,5.6c4.85,3.15,9.86,6.4,19.84,6.4s15-3.25,19.85-6.4c4.43-2.88,8.62-5.6,17.12-5.6,4.17,0,7.3.66,9.93,1.66,1.17-1.32,2.31-2.66,3.4-4.01-3.39-1.54-7.51-2.65-13.32-2.65Z"/>
                <path class="cls-1" d="m681.57,111.66c-9.98,0-15,3.25-19.85,6.4-4.43,2.88-8.62,5.6-17.12,5.6s-12.69-2.72-17.12-5.6c-4.85-3.15-9.86-6.4-19.84-6.4s-15,3.25-19.85,6.4c-4.43,2.88-8.62,5.6-17.12,5.6s-12.69-2.72-17.12-5.6c-4.85-3.15-9.86-6.4-19.84-6.4s-15,3.25-19.84,6.4c-4.43,2.88-8.62,5.6-17.12,5.6s-12.69-2.72-17.12-5.6c-4.85-3.15-9.86-6.4-19.84-6.4-8.66,0-13.58,2.45-17.9,5.16,1.27,1.18,2.58,2.34,3.92,3.48,3.5-2.04,7.47-3.63,13.98-3.63,8.5,0,12.69,2.72,17.12,5.6,4.85,3.15,9.86,6.4,19.84,6.4s15-3.25,19.84-6.4c4.43-2.88,8.62-5.6,17.12-5.6s12.69,2.72,17.12,5.6c4.85,3.15,9.86,6.4,19.84,6.4s15-3.25,19.84-6.4c4.43-2.88,8.62-5.6,17.12-5.6s12.69,2.72,17.12,5.6c4.85,3.15,9.86,6.4,19.84,6.4s15-3.25,19.85-6.4c4.43-2.88,8.62-5.6,17.12-5.6.86,0,1.66.03,2.44.09,1.57-1.46,3.08-2.94,4.54-4.46-2.04-.39-4.33-.63-6.97-.63Z"/>
                <path class="cls-1" d="m644.6,132.88c-8.5,0-12.69-2.72-17.12-5.6-4.85-3.15-9.86-6.4-19.84-6.4s-15,3.25-19.85,6.4c-4.43,2.88-8.62,5.6-17.12,5.6s-12.69-2.72-17.12-5.6c-4.85-3.15-9.86-6.4-19.84-6.4s-15,3.25-19.84,6.4c-4.43,2.88-8.62,5.6-17.12,5.6s-12.69-2.72-17.12-5.6c-4.85-3.15-9.86-6.4-19.84-6.4-4.62,0-8.17.7-11.14,1.76,1.62,1.3,3.28,2.57,4.99,3.81,1.79-.36,3.8-.57,6.15-.57,8.5,0,12.69,2.72,17.12,5.6,4.85,3.15,9.86,6.4,19.84,6.4s15-3.25,19.84-6.4c4.43-2.88,8.62-5.6,17.12-5.6s12.69,2.72,17.12,5.6c4.85,3.15,9.86,6.4,19.84,6.4s15-3.25,19.84-6.4c4.43-2.88,8.62-5.6,17.12-5.6s12.69,2.72,17.12,5.6c4.85,3.15,9.86,6.4,19.84,6.4s15-3.25,19.85-6.4c1.41-.92,2.8-1.82,4.31-2.62,3.68-2.51,7.17-5.15,10.47-7.91-8.45.47-13.05,3.44-17.51,6.33-4.43,2.88-8.62,5.6-17.12,5.6Z"/>
                <path class="cls-1" d="m627.48,136.51c-4.85-3.15-9.86-6.4-19.84-6.4s-15,3.25-19.85,6.4c-4.43,2.88-8.62,5.6-17.12,5.6s-12.69-2.72-17.12-5.6c-4.85-3.15-9.86-6.4-19.84-6.4s-15,3.25-19.84,6.4c-4.43,2.88-8.62,5.6-17.12,5.6s-12.69-2.72-17.12-5.6c-4.85-3.15-9.86-6.4-19.84-6.4-.29,0-.57.01-.85.02,3.93,2.59,8.05,5.03,12.36,7.32.8.37,1.56.77,2.3,1.2,5.99,3.06,12.32,5.82,18.94,8.25,1.3.14,2.69.22,4.2.22,9.98,0,15-3.25,19.84-6.4,4.43-2.88,8.62-5.6,17.12-5.6s12.69,2.72,17.12,5.6c4.85,3.15,9.86,6.4,19.84,6.4s15-3.25,19.84-6.4c4.43-2.88,8.62-5.6,17.12-5.6s12.69,2.72,17.12,5.6c3.12,2.03,6.32,4.09,10.86,5.31,3.21-1.23,6.35-2.53,9.41-3.92-.14,0-.28,0-.43,0-8.5,0-12.69-2.72-17.12-5.6Z"/>
                <path class="cls-1" d="m607.64,144.33c8.4,0,12.59,2.66,16.97,5.5,2.08-.65,4.14-1.33,6.17-2.04-1.13-.65-2.2-1.35-3.29-2.05-4.85-3.15-9.86-6.4-19.84-6.4s-15,3.25-19.85,6.4c-4.43,2.88-8.62,5.6-17.12,5.6s-12.69-2.72-17.12-5.6c-4.85-3.15-9.86-6.4-19.84-6.4s-15,3.25-19.84,6.4c-3.02,1.96-5.93,3.85-10.17,4.85,2.68.79,5.4,1.53,8.15,2.22,1.69-.9,3.22-1.89,4.74-2.88,4.43-2.88,8.62-5.6,17.12-5.6s12.69,2.72,17.12,5.6c4.85,3.15,9.86,6.4,19.84,6.4s15-3.25,19.84-6.4c4.43-2.88,8.62-5.6,17.12-5.6Z"/>
                <path class="cls-1" d="m607.64,148.56c-9.98,0-15,3.25-19.85,6.4-1.72,1.12-3.41,2.21-5.33,3.13,4.11-.37,8.17-.86,12.17-1.45,3.27-1.77,7.09-3.08,13-3.08.97,0,1.89.04,2.75.11,3.45-.79,6.85-1.67,10.19-2.63-3.32-1.45-7.35-2.47-12.94-2.47Z"/>
                <path class="cls-1" d="m553.55,154.96c-4.85-3.15-9.86-6.4-19.84-6.4-8.69,0-13.61,2.47-17.94,5.18,2.54.58,5.11,1.11,7.7,1.6,2.7-1.07,5.91-1.78,10.24-1.78,7.93,0,12.1,2.37,16.23,5.02,3.62.21,7.27.34,10.95.37-2.8-1.05-5.04-2.5-7.34-3.99Z"/>
              </g>
            </g>
          </g>
        </g>
      </g>
      <g>
        <path class="cls-1" d="m494.47,90.2v5.44h-8.34v-.88h1.14c1.4,0,2.63-.4,3.69-1.19s1.7-1.92,1.93-3.38h1.58Zm5.27-48.28h.61l3.77,10.53-5.62,43.19h-6.32l7.55-53.72Zm-.7,49.51c-.06.47.13,1.14.57,2.02.44.88,1.21,1.32,2.33,1.32h1.23v.88h-5.44l.88-4.21h.44Zm1.32-49.51l27.39,34.32-6.58,21.33-23.17-28.88,2.37-26.77Zm49.68,0l.7,11.15-25.63,35.64c-1.17,1.81-2.02,3.39-2.55,4.74-.53,1.35-.76,2.72-.7,4.12h-.7l-4.83-8.25,33.71-47.4Zm-9.92,49.51h.44l.88,4.21h-5.44v-.88h1.23c1.23,0,2.03-.42,2.41-1.27.38-.85.54-1.54.48-2.06Zm10.71-49.51l7.72,53.72h-17.82l-3.51-24.14,12.82-29.58h.79Zm5.27,48.28h1.67c.29,1.46.95,2.59,1.97,3.38,1.02.79,2.18,1.19,3.47,1.19h1.23v.88h-8.34v-5.44Z"/>
        <g class="cls-7">
          <g>
            <ellipse class="cls-1" cx="564.26" cy="53.12" rx="163.17" ry="113.55"/>
            <g>
              <path class="cls-1" d="m629.81,73.81c0-37.06-30.05-69.97-67.11-69.97s-67.75,38.63-67.75,75.7l40.84-11.79,36.18,11.79,35.23-12.08,22.61,6.35Z"/>
              <g>
                <path class="cls-1" d="m701.75,71.71c-4.85-3.15-9.86-6.4-19.85-6.4s-15,3.25-19.85,6.4c-4.43,2.88-8.62,5.6-17.12,5.6s-12.69-2.72-17.12-5.6c-4.85-3.15-9.86-6.4-19.84-6.4s-15,3.25-19.85,6.4c-4.43,2.88-8.62,5.6-17.12,5.6s-12.69-2.72-17.12-5.6c-4.85-3.15-9.86-6.4-19.84-6.4s-15,3.25-19.84,6.4c-4.43,2.88-8.62,5.6-17.12,5.6s-12.69-2.72-17.12-5.6c-4.85-3.15-9.86-6.4-19.84-6.4s-14.99,3.25-19.84,6.4c-4.43,2.88-8.62,5.6-17.12,5.6-2.96,0-5.38-.33-7.49-.88.59,1.85,1.25,3.69,1.98,5.5,1.66.24,3.48.38,5.51.38,9.98,0,15-3.25,19.84-6.4,4.43-2.88,8.62-5.6,17.12-5.6s12.69,2.72,17.12,5.6c4.85,3.15,9.86,6.4,19.84,6.4s15-3.25,19.84-6.4c4.43-2.88,8.62-5.6,17.12-5.6s12.69,2.72,17.12,5.6c4.85,3.15,9.86,6.4,19.84,6.4s15-3.25,19.84-6.4c4.43-2.88,8.62-5.6,17.12-5.6s12.69,2.72,17.12,5.6c4.85,3.15,9.86,6.4,19.84,6.4s15-3.25,19.85-6.4c4.43-2.88,8.62-5.6,17.12-5.6s12.69,2.72,17.12,5.6c2.96,1.92,5.99,3.88,10.17,5.12.61-1.56,1.16-3.14,1.67-4.73-3.68-1.05-6.35-2.78-9.11-4.58Z"/>
                <path class="cls-1" d="m701.75,80.94c-4.85-3.15-9.86-6.4-19.85-6.4s-15,3.25-19.85,6.4c-4.43,2.88-8.62,5.6-17.12,5.6s-12.69-2.72-17.12-5.6c-4.85-3.15-9.86-6.4-19.84-6.4s-15,3.25-19.85,6.4c-4.43,2.88-8.62,5.6-17.12,5.6s-12.69-2.72-17.12-5.6c-4.85-3.15-9.86-6.4-19.84-6.4s-15,3.25-19.84,6.4c-4.43,2.88-8.62,5.6-17.12,5.6s-12.69-2.72-17.12-5.6c-4.85-3.15-9.86-6.4-19.84-6.4s-14.99,3.25-19.84,6.4c-4.43,2.88-8.62,5.6-17.12,5.6-1.29,0-2.47-.07-3.58-.19.82,1.74,1.7,3.47,2.65,5.17.31,0,.61.02.93.02,9.98,0,15-3.25,19.84-6.4,4.43-2.88,8.62-5.6,17.12-5.6s12.69,2.72,17.12,5.6c4.85,3.15,9.86,6.4,19.84,6.4s15-3.25,19.84-6.4c4.43-2.88,8.62-5.6,17.12-5.6s12.69,2.72,17.12,5.6c4.85,3.15,9.86,6.4,19.84,6.4s15-3.25,19.84-6.4c4.43-2.88,8.62-5.6,17.12-5.6s12.69,2.72,17.12,5.6c4.85,3.15,9.86,6.4,19.84,6.4s15-3.25,19.85-6.4c4.43-2.88,8.62-5.6,17.12-5.6s12.69,2.72,17.12,5.6c2.05,1.33,4.14,2.68,6.61,3.8.77-1.49,1.49-3,2.16-4.52-2.22-.98-4.11-2.21-6.05-3.47Z"/>
                <path class="cls-1" d="m701.75,90.16c-4.85-3.15-9.86-6.4-19.85-6.4s-15,3.25-19.85,6.4c-4.43,2.88-8.62,5.6-17.12,5.6s-12.69-2.72-17.12-5.6c-4.85-3.15-9.86-6.4-19.84-6.4s-15,3.25-19.85,6.4c-4.43,2.88-8.62,5.6-17.12,5.6s-12.69-2.72-17.12-5.6c-4.85-3.15-9.86-6.4-19.84-6.4s-15,3.25-19.84,6.4c-4.43,2.88-8.62,5.6-17.12,5.6s-12.69-2.72-17.12-5.6c-4.85-3.15-9.86-6.4-19.84-6.4s-14.99,3.25-19.84,6.4c-4.15,2.69-8.09,5.25-15.55,5.56,1.01,1.6,2.08,3.19,3.2,4.75,6.94-.85,11.07-3.52,15.07-6.12,4.43-2.88,8.62-5.6,17.12-5.6s12.69,2.72,17.12,5.6c4.85,3.15,9.86,6.4,19.84,6.4s15-3.25,19.84-6.4c4.43-2.88,8.62-5.6,17.12-5.6s12.69,2.72,17.12,5.6c4.85,3.15,9.86,6.4,19.84,6.4s15-3.25,19.84-6.4c4.43-2.88,8.62-5.6,17.12-5.6s12.69,2.72,17.12,5.6c4.85,3.15,9.86,6.4,19.84,6.4s15-3.25,19.85-6.4c4.43-2.88,8.62-5.6,17.12-5.6s12.69,2.72,17.12,5.6c.84.55,1.69,1.09,2.57,1.63.9-1.42,1.76-2.85,2.57-4.29-.81-.49-1.61-1.01-2.41-1.53Z"/>
                <path class="cls-1" d="m681.9,92.98c-9.98,0-15,3.25-19.85,6.4-4.43,2.88-8.62,5.6-17.12,5.6s-12.69-2.72-17.12-5.6c-4.85-3.15-9.86-6.4-19.84-6.4s-15,3.25-19.85,6.4c-4.43,2.88-8.62,5.6-17.12,5.6s-12.69-2.72-17.12-5.6c-4.85-3.15-9.86-6.4-19.84-6.4s-15,3.25-19.84,6.4c-4.43,2.88-8.62,5.6-17.12,5.6s-12.69-2.72-17.12-5.6c-4.85-3.15-9.86-6.4-19.84-6.4s-14.99,3.25-19.84,6.4c-2.89,1.88-5.68,3.68-9.63,4.71,1.12,1.41,2.27,2.81,3.48,4.18,3.52-1.24,6.22-2.98,8.87-4.7,4.43-2.88,8.62-5.6,17.12-5.6s12.69,2.72,17.12,5.6c4.85,3.15,9.86,6.4,19.84,6.4s15-3.25,19.84-6.4c4.43-2.88,8.62-5.6,17.12-5.6s12.69,2.72,17.12,5.6c4.85,3.15,9.86,6.4,19.84,6.4s15-3.25,19.84-6.4c4.43-2.88,8.62-5.6,17.12-5.6s12.69,2.72,17.12,5.6c4.85,3.15,9.86,6.4,19.84,6.4s15-3.25,19.85-6.4c4.43-2.88,8.62-5.6,17.12-5.6,7.31,0,11.43,2.01,15.25,4.4,1.01-1.34,1.99-2.7,2.92-4.07-4.38-2.77-9.33-5.32-18.17-5.32Z"/>
                <path class="cls-1" d="m681.9,102.21c-9.98,0-15,3.25-19.85,6.4-4.43,2.88-8.62,5.6-17.12,5.6s-12.69-2.72-17.12-5.6c-4.85-3.15-9.86-6.4-19.84-6.4s-15,3.25-19.85,6.4c-4.43,2.88-8.62,5.6-17.12,5.6s-12.69-2.72-17.12-5.6c-4.85-3.15-9.86-6.4-19.84-6.4s-15,3.25-19.84,6.4c-4.43,2.88-8.62,5.6-17.12,5.6s-12.69-2.72-17.12-5.6c-4.85-3.15-9.86-6.4-19.84-6.4s-14.99,3.25-19.84,6.4c-1.23.8-2.45,1.59-3.75,2.31,1.17,1.25,2.37,2.48,3.61,3.69.98-.59,1.92-1.2,2.85-1.81,4.43-2.88,8.62-5.6,17.12-5.6s12.69,2.72,17.12,5.6c4.85,3.15,9.86,6.4,19.84,6.4s15-3.25,19.84-6.4c4.43-2.88,8.62-5.6,17.12-5.6s12.69,2.72,17.12,5.6c4.85,3.15,9.86,6.4,19.84,6.4s15-3.25,19.84-6.4c4.43-2.88,8.62-5.6,17.12-5.6s12.69,2.72,17.12,5.6c4.85,3.15,9.86,6.4,19.84,6.4s15-3.25,19.85-6.4c4.43-2.88,8.62-5.6,17.12-5.6,4.17,0,7.3.66,9.93,1.66,1.17-1.32,2.31-2.66,3.4-4.01-3.39-1.54-7.51-2.65-13.32-2.65Z"/>
                <path class="cls-1" d="m681.9,111.43c-9.98,0-15,3.25-19.85,6.4-4.43,2.88-8.62,5.6-17.12,5.6s-12.69-2.72-17.12-5.6c-4.85-3.15-9.86-6.4-19.84-6.4s-15,3.25-19.85,6.4c-4.43,2.88-8.62,5.6-17.12,5.6s-12.69-2.72-17.12-5.6c-4.85-3.15-9.86-6.4-19.84-6.4s-15,3.25-19.84,6.4c-4.43,2.88-8.62,5.6-17.12,5.6s-12.69-2.72-17.12-5.6c-4.85-3.15-9.86-6.4-19.84-6.4-8.66,0-13.58,2.45-17.9,5.16,1.27,1.18,2.58,2.34,3.92,3.48,3.5-2.04,7.47-3.63,13.98-3.63,8.5,0,12.69,2.72,17.12,5.6,4.85,3.15,9.86,6.4,19.84,6.4s15-3.25,19.84-6.4c4.43-2.88,8.62-5.6,17.12-5.6s12.69,2.72,17.12,5.6c4.85,3.15,9.86,6.4,19.84,6.4s15-3.25,19.84-6.4c4.43-2.88,8.62-5.6,17.12-5.6s12.69,2.72,17.12,5.6c4.85,3.15,9.86,6.4,19.84,6.4s15-3.25,19.85-6.4c4.43-2.88,8.62-5.6,17.12-5.6.86,0,1.66.03,2.44.09,1.57-1.46,3.08-2.94,4.54-4.46-2.04-.39-4.33-.63-6.97-.63Z"/>
                <path class="cls-1" d="m644.93,132.66c-8.5,0-12.69-2.72-17.12-5.6-4.85-3.15-9.86-6.4-19.84-6.4s-15,3.25-19.85,6.4c-4.43,2.88-8.62,5.6-17.12,5.6s-12.69-2.72-17.12-5.6c-4.85-3.15-9.86-6.4-19.84-6.4s-15,3.25-19.84,6.4c-4.43,2.88-8.62,5.6-17.12,5.6s-12.69-2.72-17.12-5.6c-4.85-3.15-9.86-6.4-19.84-6.4-4.62,0-8.17.7-11.14,1.76,1.62,1.3,3.28,2.57,4.99,3.81,1.79-.36,3.8-.57,6.15-.57,8.5,0,12.69,2.72,17.12,5.6,4.85,3.15,9.86,6.4,19.84,6.4s15-3.25,19.84-6.4c4.43-2.88,8.62-5.6,17.12-5.6s12.69,2.72,17.12,5.6c4.85,3.15,9.86,6.4,19.84,6.4s15-3.25,19.84-6.4c4.43-2.88,8.62-5.6,17.12-5.6s12.69,2.72,17.12,5.6c4.85,3.15,9.86,6.4,19.84,6.4s15-3.25,19.85-6.4c1.41-.92,2.8-1.82,4.31-2.62,3.68-2.51,7.17-5.15,10.47-7.91-8.45.47-13.05,3.44-17.51,6.33-4.43,2.88-8.62,5.6-17.12,5.6Z"/>
                <path class="cls-1" d="m627.81,136.28c-4.85-3.15-9.86-6.4-19.84-6.4s-15,3.25-19.85,6.4c-4.43,2.88-8.62,5.6-17.12,5.6s-12.69-2.72-17.12-5.6c-4.85-3.15-9.86-6.4-19.84-6.4s-15,3.25-19.84,6.4c-4.43,2.88-8.62,5.6-17.12,5.6s-12.69-2.72-17.12-5.6c-4.85-3.15-9.86-6.4-19.84-6.4-.29,0-.57.01-.85.02,3.93,2.59,8.05,5.03,12.36,7.32.8.37,1.56.77,2.3,1.2,5.99,3.06,12.32,5.82,18.94,8.25,1.3.14,2.69.22,4.2.22,9.98,0,15-3.25,19.84-6.4,4.43-2.88,8.62-5.6,17.12-5.6s12.69,2.72,17.12,5.6c4.85,3.15,9.86,6.4,19.84,6.4s15-3.25,19.84-6.4c4.43-2.88,8.62-5.6,17.12-5.6s12.69,2.72,17.12,5.6c3.12,2.03,6.32,4.09,10.86,5.31,3.21-1.23,6.35-2.53,9.41-3.92-.14,0-.28,0-.43,0-8.5,0-12.69-2.72-17.12-5.6Z"/>
                <path class="cls-1" d="m607.96,144.1c8.4,0,12.59,2.66,16.97,5.5,2.08-.65,4.14-1.33,6.17-2.04-1.13-.65-2.2-1.35-3.29-2.05-4.85-3.15-9.86-6.4-19.84-6.4s-15,3.25-19.85,6.4c-4.43,2.88-8.62,5.6-17.12,5.6s-12.69-2.72-17.12-5.6c-4.85-3.15-9.86-6.4-19.84-6.4s-15,3.25-19.84,6.4c-3.02,1.96-5.93,3.85-10.17,4.85,2.68.79,5.4,1.53,8.15,2.22,1.69-.9,3.22-1.89,4.74-2.88,4.43-2.88,8.62-5.6,17.12-5.6s12.69,2.72,17.12,5.6c4.85,3.15,9.86,6.4,19.84,6.4s15-3.25,19.84-6.4c4.43-2.88,8.62-5.6,17.12-5.6Z"/>
                <path class="cls-1" d="m607.96,148.33c-9.98,0-15,3.25-19.85,6.4-1.72,1.12-3.41,2.21-5.33,3.13,4.11-.37,8.17-.86,12.17-1.45,3.27-1.77,7.09-3.08,13-3.08.97,0,1.89.04,2.75.11,3.45-.79,6.85-1.67,10.19-2.63-3.32-1.45-7.35-2.47-12.94-2.47Z"/>
                <path class="cls-1" d="m553.87,154.73c-4.85-3.15-9.86-6.4-19.84-6.4-8.69,0-13.61,2.47-17.94,5.18,2.54.58,5.11,1.11,7.7,1.6,2.7-1.07,5.91-1.78,10.24-1.78,7.93,0,12.1,2.37,16.23,5.02,3.62.21,7.27.34,10.95.37-2.8-1.05-5.04-2.5-7.34-3.99Z"/>
              </g>
            </g>
          </g>
        </g>
      </g>
      <g>
        <path class="cls-1" d="m596.65,41.92c5.03,0,9.52.61,13.47,1.84,3.95,1.23,7.31,3.01,10.09,5.35,2.78,2.34,4.88,5.21,6.32,8.6,1.43,3.39,2.15,7.29,2.15,11.67s-.72,8.18-2.15,11.54c-1.44,3.37-3.54,6.22-6.32,8.56-2.78,2.34-6.14,4.12-10.09,5.35-3.95,1.23-8.44,1.84-13.47,1.84s-9.44-.61-13.39-1.84c-3.95-1.23-7.32-3.01-10.09-5.35-2.78-2.34-4.89-5.19-6.32-8.56-1.43-3.37-2.15-7.21-2.15-11.54s.72-8.28,2.15-11.67c1.43-3.39,3.54-6.26,6.32-8.6,2.78-2.34,6.14-4.13,10.09-5.35,3.95-1.23,8.41-1.84,13.39-1.84Zm0,50.82c3.1,0,5.69-.92,7.77-2.76,2.08-1.84,3.64-4.51,4.7-7.99,1.05-3.48,1.58-7.68,1.58-12.6s-.53-9.22-1.58-12.73c-1.05-3.51-2.62-6.19-4.7-8.03-2.08-1.84-4.67-2.76-7.77-2.76s-5.6.92-7.68,2.76c-2.08,1.84-3.66,4.52-4.74,8.03-1.08,3.51-1.62,7.75-1.62,12.73s.54,9.12,1.62,12.6c1.08,3.48,2.66,6.14,4.74,7.99,2.08,1.84,4.64,2.76,7.68,2.76Z"/>
        <g class="cls-4">
          <g>
            <ellipse class="cls-1" cx="564.26" cy="53.12" rx="163.17" ry="113.55"/>
            <g>
              <path class="cls-1" d="m629.81,73.81c0-37.06-30.05-69.97-67.11-69.97s-67.75,38.63-67.75,75.7l40.84-11.79,36.18,11.79,35.23-12.08,22.61,6.35Z"/>
              <g>
                <path class="cls-1" d="m701.75,71.71c-4.85-3.15-9.86-6.4-19.85-6.4s-15,3.25-19.85,6.4c-4.43,2.88-8.62,5.6-17.12,5.6s-12.69-2.72-17.12-5.6c-4.85-3.15-9.86-6.4-19.84-6.4s-15,3.25-19.85,6.4c-4.43,2.88-8.62,5.6-17.12,5.6s-12.69-2.72-17.12-5.6c-4.85-3.15-9.86-6.4-19.84-6.4s-15,3.25-19.84,6.4c-4.43,2.88-8.62,5.6-17.12,5.6s-12.69-2.72-17.12-5.6c-4.85-3.15-9.86-6.4-19.84-6.4s-14.99,3.25-19.84,6.4c-4.43,2.88-8.62,5.6-17.12,5.6-2.96,0-5.38-.33-7.49-.88.59,1.85,1.25,3.69,1.98,5.5,1.66.24,3.48.38,5.51.38,9.98,0,15-3.25,19.84-6.4,4.43-2.88,8.62-5.6,17.12-5.6s12.69,2.72,17.12,5.6c4.85,3.15,9.86,6.4,19.84,6.4s15-3.25,19.84-6.4c4.43-2.88,8.62-5.6,17.12-5.6s12.69,2.72,17.12,5.6c4.85,3.15,9.86,6.4,19.84,6.4s15-3.25,19.84-6.4c4.43-2.88,8.62-5.6,17.12-5.6s12.69,2.72,17.12,5.6c4.85,3.15,9.86,6.4,19.84,6.4s15-3.25,19.85-6.4c4.43-2.88,8.62-5.6,17.12-5.6s12.69,2.72,17.12,5.6c2.96,1.92,5.99,3.88,10.17,5.12.61-1.56,1.16-3.14,1.67-4.73-3.68-1.05-6.35-2.78-9.11-4.58Z"/>
                <path class="cls-1" d="m701.75,80.94c-4.85-3.15-9.86-6.4-19.85-6.4s-15,3.25-19.85,6.4c-4.43,2.88-8.62,5.6-17.12,5.6s-12.69-2.72-17.12-5.6c-4.85-3.15-9.86-6.4-19.84-6.4s-15,3.25-19.85,6.4c-4.43,2.88-8.62,5.6-17.12,5.6s-12.69-2.72-17.12-5.6c-4.85-3.15-9.86-6.4-19.84-6.4s-15,3.25-19.84,6.4c-4.43,2.88-8.62,5.6-17.12,5.6s-12.69-2.72-17.12-5.6c-4.85-3.15-9.86-6.4-19.84-6.4s-14.99,3.25-19.84,6.4c-4.43,2.88-8.62,5.6-17.12,5.6-1.29,0-2.47-.07-3.58-.19.82,1.74,1.7,3.47,2.65,5.17.31,0,.61.02.93.02,9.98,0,15-3.25,19.84-6.4,4.43-2.88,8.62-5.6,17.12-5.6s12.69,2.72,17.12,5.6c4.85,3.15,9.86,6.4,19.84,6.4s15-3.25,19.84-6.4c4.43-2.88,8.62-5.6,17.12-5.6s12.69,2.72,17.12,5.6c4.85,3.15,9.86,6.4,19.84,6.4s15-3.25,19.84-6.4c4.43-2.88,8.62-5.6,17.12-5.6s12.69,2.72,17.12,5.6c4.85,3.15,9.86,6.4,19.84,6.4s15-3.25,19.85-6.4c4.43-2.88,8.62-5.6,17.12-5.6s12.69,2.72,17.12,5.6c2.05,1.33,4.14,2.68,6.61,3.8.77-1.49,1.49-3,2.16-4.52-2.22-.98-4.11-2.21-6.05-3.47Z"/>
                <path class="cls-1" d="m701.75,90.16c-4.85-3.15-9.86-6.4-19.85-6.4s-15,3.25-19.85,6.4c-4.43,2.88-8.62,5.6-17.12,5.6s-12.69-2.72-17.12-5.6c-4.85-3.15-9.86-6.4-19.84-6.4s-15,3.25-19.85,6.4c-4.43,2.88-8.62,5.6-17.12,5.6s-12.69-2.72-17.12-5.6c-4.85-3.15-9.86-6.4-19.84-6.4s-15,3.25-19.84,6.4c-4.43,2.88-8.62,5.6-17.12,5.6s-12.69-2.72-17.12-5.6c-4.85-3.15-9.86-6.4-19.84-6.4s-14.99,3.25-19.84,6.4c-4.15,2.69-8.09,5.25-15.55,5.56,1.01,1.6,2.08,3.19,3.2,4.75,6.94-.85,11.07-3.52,15.07-6.12,4.43-2.88,8.62-5.6,17.12-5.6s12.69,2.72,17.12,5.6c4.85,3.15,9.86,6.4,19.84,6.4s15-3.25,19.84-6.4c4.43-2.88,8.62-5.6,17.12-5.6s12.69,2.72,17.12,5.6c4.85,3.15,9.86,6.4,19.84,6.4s15-3.25,19.84-6.4c4.43-2.88,8.62-5.6,17.12-5.6s12.69,2.72,17.12,5.6c4.85,3.15,9.86,6.4,19.84,6.4s15-3.25,19.85-6.4c4.43-2.88,8.62-5.6,17.12-5.6s12.69,2.72,17.12,5.6c.84.55,1.69,1.09,2.57,1.63.9-1.42,1.76-2.85,2.57-4.29-.81-.49-1.61-1.01-2.41-1.53Z"/>
                <path class="cls-1" d="m681.9,92.98c-9.98,0-15,3.25-19.85,6.4-4.43,2.88-8.62,5.6-17.12,5.6s-12.69-2.72-17.12-5.6c-4.85-3.15-9.86-6.4-19.84-6.4s-15,3.25-19.85,6.4c-4.43,2.88-8.62,5.6-17.12,5.6s-12.69-2.72-17.12-5.6c-4.85-3.15-9.86-6.4-19.84-6.4s-15,3.25-19.84,6.4c-4.43,2.88-8.62,5.6-17.12,5.6s-12.69-2.72-17.12-5.6c-4.85-3.15-9.86-6.4-19.84-6.4s-14.99,3.25-19.84,6.4c-2.89,1.88-5.68,3.68-9.63,4.71,1.12,1.41,2.27,2.81,3.48,4.18,3.52-1.24,6.22-2.98,8.87-4.7,4.43-2.88,8.62-5.6,17.12-5.6s12.69,2.72,17.12,5.6c4.85,3.15,9.86,6.4,19.84,6.4s15-3.25,19.84-6.4c4.43-2.88,8.62-5.6,17.12-5.6s12.69,2.72,17.12,5.6c4.85,3.15,9.86,6.4,19.84,6.4s15-3.25,19.84-6.4c4.43-2.88,8.62-5.6,17.12-5.6s12.69,2.72,17.12,5.6c4.85,3.15,9.86,6.4,19.84,6.4s15-3.25,19.85-6.4c4.43-2.88,8.62-5.6,17.12-5.6,7.31,0,11.43,2.01,15.25,4.4,1.01-1.34,1.99-2.7,2.92-4.07-4.38-2.77-9.33-5.32-18.17-5.32Z"/>
                <path class="cls-1" d="m681.9,102.21c-9.98,0-15,3.25-19.85,6.4-4.43,2.88-8.62,5.6-17.12,5.6s-12.69-2.72-17.12-5.6c-4.85-3.15-9.86-6.4-19.84-6.4s-15,3.25-19.85,6.4c-4.43,2.88-8.62,5.6-17.12,5.6s-12.69-2.72-17.12-5.6c-4.85-3.15-9.86-6.4-19.84-6.4s-15,3.25-19.84,6.4c-4.43,2.88-8.62,5.6-17.12,5.6s-12.69-2.72-17.12-5.6c-4.85-3.15-9.86-6.4-19.84-6.4s-14.99,3.25-19.84,6.4c-1.23.8-2.45,1.59-3.75,2.31,1.17,1.25,2.37,2.48,3.61,3.69.98-.59,1.92-1.2,2.85-1.81,4.43-2.88,8.62-5.6,17.12-5.6s12.69,2.72,17.12,5.6c4.85,3.15,9.86,6.4,19.84,6.4s15-3.25,19.84-6.4c4.43-2.88,8.62-5.6,17.12-5.6s12.69,2.72,17.12,5.6c4.85,3.15,9.86,6.4,19.84,6.4s15-3.25,19.84-6.4c4.43-2.88,8.62-5.6,17.12-5.6s12.69,2.72,17.12,5.6c4.85,3.15,9.86,6.4,19.84,6.4s15-3.25,19.85-6.4c4.43-2.88,8.62-5.6,17.12-5.6,4.17,0,7.3.66,9.93,1.66,1.17-1.32,2.31-2.66,3.4-4.01-3.39-1.54-7.51-2.65-13.32-2.65Z"/>
                <path class="cls-1" d="m681.9,111.43c-9.98,0-15,3.25-19.85,6.4-4.43,2.88-8.62,5.6-17.12,5.6s-12.69-2.72-17.12-5.6c-4.85-3.15-9.86-6.4-19.84-6.4s-15,3.25-19.85,6.4c-4.43,2.88-8.62,5.6-17.12,5.6s-12.69-2.72-17.12-5.6c-4.85-3.15-9.86-6.4-19.84-6.4s-15,3.25-19.84,6.4c-4.43,2.88-8.62,5.6-17.12,5.6s-12.69-2.72-17.12-5.6c-4.85-3.15-9.86-6.4-19.84-6.4-8.66,0-13.58,2.45-17.9,5.16,1.27,1.18,2.58,2.34,3.92,3.48,3.5-2.04,7.47-3.63,13.98-3.63,8.5,0,12.69,2.72,17.12,5.6,4.85,3.15,9.86,6.4,19.84,6.4s15-3.25,19.84-6.4c4.43-2.88,8.62-5.6,17.12-5.6s12.69,2.72,17.12,5.6c4.85,3.15,9.86,6.4,19.84,6.4s15-3.25,19.84-6.4c4.43-2.88,8.62-5.6,17.12-5.6s12.69,2.72,17.12,5.6c4.85,3.15,9.86,6.4,19.84,6.4s15-3.25,19.85-6.4c4.43-2.88,8.62-5.6,17.12-5.6.86,0,1.66.03,2.44.09,1.57-1.46,3.08-2.94,4.54-4.46-2.04-.39-4.33-.63-6.97-.63Z"/>
                <path class="cls-1" d="m644.93,132.66c-8.5,0-12.69-2.72-17.12-5.6-4.85-3.15-9.86-6.4-19.84-6.4s-15,3.25-19.85,6.4c-4.43,2.88-8.62,5.6-17.12,5.6s-12.69-2.72-17.12-5.6c-4.85-3.15-9.86-6.4-19.84-6.4s-15,3.25-19.84,6.4c-4.43,2.88-8.62,5.6-17.12,5.6s-12.69-2.72-17.12-5.6c-4.85-3.15-9.86-6.4-19.84-6.4-4.62,0-8.17.7-11.14,1.76,1.62,1.3,3.28,2.57,4.99,3.81,1.79-.36,3.8-.57,6.15-.57,8.5,0,12.69,2.72,17.12,5.6,4.85,3.15,9.86,6.4,19.84,6.4s15-3.25,19.84-6.4c4.43-2.88,8.62-5.6,17.12-5.6s12.69,2.72,17.12,5.6c4.85,3.15,9.86,6.4,19.84,6.4s15-3.25,19.84-6.4c4.43-2.88,8.62-5.6,17.12-5.6s12.69,2.72,17.12,5.6c4.85,3.15,9.86,6.4,19.84,6.4s15-3.25,19.85-6.4c1.41-.92,2.8-1.82,4.31-2.62,3.68-2.51,7.17-5.15,10.47-7.91-8.45.47-13.05,3.44-17.51,6.33-4.43,2.88-8.62,5.6-17.12,5.6Z"/>
                <path class="cls-1" d="m627.81,136.28c-4.85-3.15-9.86-6.4-19.84-6.4s-15,3.25-19.85,6.4c-4.43,2.88-8.62,5.6-17.12,5.6s-12.69-2.72-17.12-5.6c-4.85-3.15-9.86-6.4-19.84-6.4s-15,3.25-19.84,6.4c-4.43,2.88-8.62,5.6-17.12,5.6s-12.69-2.72-17.12-5.6c-4.85-3.15-9.86-6.4-19.84-6.4-.29,0-.57.01-.85.02,3.93,2.59,8.05,5.03,12.36,7.32.8.37,1.56.77,2.3,1.2,5.99,3.06,12.32,5.82,18.94,8.25,1.3.14,2.69.22,4.2.22,9.98,0,15-3.25,19.84-6.4,4.43-2.88,8.62-5.6,17.12-5.6s12.69,2.72,17.12,5.6c4.85,3.15,9.86,6.4,19.84,6.4s15-3.25,19.84-6.4c4.43-2.88,8.62-5.6,17.12-5.6s12.69,2.72,17.12,5.6c3.12,2.03,6.32,4.09,10.86,5.31,3.21-1.23,6.35-2.53,9.41-3.92-.14,0-.28,0-.43,0-8.5,0-12.69-2.72-17.12-5.6Z"/>
                <path class="cls-1" d="m607.96,144.1c8.4,0,12.59,2.66,16.97,5.5,2.08-.65,4.14-1.33,6.17-2.04-1.13-.65-2.2-1.35-3.29-2.05-4.85-3.15-9.86-6.4-19.84-6.4s-15,3.25-19.85,6.4c-4.43,2.88-8.62,5.6-17.12,5.6s-12.69-2.72-17.12-5.6c-4.85-3.15-9.86-6.4-19.84-6.4s-15,3.25-19.84,6.4c-3.02,1.96-5.93,3.85-10.17,4.85,2.68.79,5.4,1.53,8.15,2.22,1.69-.9,3.22-1.89,4.74-2.88,4.43-2.88,8.62-5.6,17.12-5.6s12.69,2.72,17.12,5.6c4.85,3.15,9.86,6.4,19.84,6.4s15-3.25,19.84-6.4c4.43-2.88,8.62-5.6,17.12-5.6Z"/>
                <path class="cls-1" d="m607.96,148.33c-9.98,0-15,3.25-19.85,6.4-1.72,1.12-3.41,2.21-5.33,3.13,4.11-.37,8.17-.86,12.17-1.45,3.27-1.77,7.09-3.08,13-3.08.97,0,1.89.04,2.75.11,3.45-.79,6.85-1.67,10.19-2.63-3.32-1.45-7.35-2.47-12.94-2.47Z"/>
                <path class="cls-1" d="m553.87,154.73c-4.85-3.15-9.86-6.4-19.84-6.4-8.69,0-13.61,2.47-17.94,5.18,2.54.58,5.11,1.11,7.7,1.6,2.7-1.07,5.91-1.78,10.24-1.78,7.93,0,12.1,2.37,16.23,5.02,3.62.21,7.27.34,10.95.37-2.8-1.05-5.04-2.5-7.34-3.99Z"/>
              </g>
            </g>
          </g>
        </g>
      </g>
      <g>
        <path class="cls-1" d="m638.52,48.41h-.26c0-1.35-.44-2.44-1.32-3.29-.88-.85-1.9-1.27-3.07-1.27h-1.05v-.88h5.62l.09,5.44Zm0,41.78l-.09,5.44h-5.62v-.88h.97c1.17,0,2.21-.44,3.12-1.32.91-.88,1.36-1.96,1.36-3.25h.26Zm17.03-47.23v52.67h-17.29v-52.67h17.29Zm7.46,0c2.22,0,4.5.19,6.85.57,2.34.38,4.5,1.07,6.5,2.06,1.99,1,3.6,2.44,4.83,4.35,1.23,1.9,1.84,4.4,1.84,7.5,0,1.76-.31,3.63-.92,5.62-.61,1.99-1.73,3.76-3.34,5.31-1.61,1.55-3.94,2.59-6.98,3.12,2.22.59,4.18,1.7,5.88,3.34,1.7,1.64,2.92,3.13,3.69,4.48.41.7.86,1.57,1.36,2.59.5,1.03,1.1,2.15,1.8,3.38.7,1.23,1.49,2.55,2.37,3.95,1.11,1.7,2.08,2.94,2.9,3.73.82.79,1.61,1.29,2.37,1.49.76.21,1.61.31,2.55.31v.88h-10.36c-3.1,0-5.79-.13-8.08-.4-2.28-.26-4.32-1.02-6.1-2.28-1.79-1.26-3.53-3.32-5.22-6.19-.64-1.11-1.18-2.15-1.62-3.12-.44-.97-.8-1.92-1.1-2.85-.29-.94-.54-1.9-.75-2.9s-.42-2.02-.66-3.07c-.41-2.05-.94-3.38-1.58-3.99-.64-.62-1.08-.95-1.32-1.01v-.7h.44c.94,0,1.87-.29,2.81-.88.94-.58,1.76-1.57,2.46-2.94.7-1.37,1.17-3.29,1.4-5.75,0-.18.03-.5.09-.97.06-.47.06-1.08,0-1.84-.12-2.52-.56-4.43-1.32-5.75-.76-1.32-1.62-2.24-2.59-2.76-.97-.53-1.83-.83-2.59-.92-.76-.09-1.2-.13-1.32-.13h-1.84c-.06,0-.13-.35-.22-1.05-.09-.7-.22-1.75-.4-3.16h8.16Zm-7.64,47.23h.18c0,1.52.53,2.66,1.58,3.42,1.05.76,2.08,1.14,3.07,1.14h.79v.88h-5.53l-.09-5.44Z"/>
        <g class="cls-12">
          <g>
            <ellipse class="cls-1" cx="564.26" cy="53.12" rx="163.17" ry="113.55"/>
            <g>
              <path class="cls-1" d="m629.81,73.81c0-37.06-30.05-69.97-67.11-69.97s-67.75,38.63-67.75,75.7l40.84-11.79,36.18,11.79,35.23-12.08,22.61,6.35Z"/>
              <g>
                <path class="cls-1" d="m701.75,71.71c-4.85-3.15-9.86-6.4-19.85-6.4s-15,3.25-19.85,6.4c-4.43,2.88-8.62,5.6-17.12,5.6s-12.69-2.72-17.12-5.6c-4.85-3.15-9.86-6.4-19.84-6.4s-15,3.25-19.85,6.4c-4.43,2.88-8.62,5.6-17.12,5.6s-12.69-2.72-17.12-5.6c-4.85-3.15-9.86-6.4-19.84-6.4s-15,3.25-19.84,6.4c-4.43,2.88-8.62,5.6-17.12,5.6s-12.69-2.72-17.12-5.6c-4.85-3.15-9.86-6.4-19.84-6.4s-14.99,3.25-19.84,6.4c-4.43,2.88-8.62,5.6-17.12,5.6-2.96,0-5.38-.33-7.49-.88.59,1.85,1.25,3.69,1.98,5.5,1.66.24,3.48.38,5.51.38,9.98,0,15-3.25,19.84-6.4,4.43-2.88,8.62-5.6,17.12-5.6s12.69,2.72,17.12,5.6c4.85,3.15,9.86,6.4,19.84,6.4s15-3.25,19.84-6.4c4.43-2.88,8.62-5.6,17.12-5.6s12.69,2.72,17.12,5.6c4.85,3.15,9.86,6.4,19.84,6.4s15-3.25,19.84-6.4c4.43-2.88,8.62-5.6,17.12-5.6s12.69,2.72,17.12,5.6c4.85,3.15,9.86,6.4,19.84,6.4s15-3.25,19.85-6.4c4.43-2.88,8.62-5.6,17.12-5.6s12.69,2.72,17.12,5.6c2.96,1.92,5.99,3.88,10.17,5.12.61-1.56,1.16-3.14,1.67-4.73-3.68-1.05-6.35-2.78-9.11-4.58Z"/>
                <path class="cls-1" d="m701.75,80.94c-4.85-3.15-9.86-6.4-19.85-6.4s-15,3.25-19.85,6.4c-4.43,2.88-8.62,5.6-17.12,5.6s-12.69-2.72-17.12-5.6c-4.85-3.15-9.86-6.4-19.84-6.4s-15,3.25-19.85,6.4c-4.43,2.88-8.62,5.6-17.12,5.6s-12.69-2.72-17.12-5.6c-4.85-3.15-9.86-6.4-19.84-6.4s-15,3.25-19.84,6.4c-4.43,2.88-8.62,5.6-17.12,5.6s-12.69-2.72-17.12-5.6c-4.85-3.15-9.86-6.4-19.84-6.4s-14.99,3.25-19.84,6.4c-4.43,2.88-8.62,5.6-17.12,5.6-1.29,0-2.47-.07-3.58-.19.82,1.74,1.7,3.47,2.65,5.17.31,0,.61.02.93.02,9.98,0,15-3.25,19.84-6.4,4.43-2.88,8.62-5.6,17.12-5.6s12.69,2.72,17.12,5.6c4.85,3.15,9.86,6.4,19.84,6.4s15-3.25,19.84-6.4c4.43-2.88,8.62-5.6,17.12-5.6s12.69,2.72,17.12,5.6c4.85,3.15,9.86,6.4,19.84,6.4s15-3.25,19.84-6.4c4.43-2.88,8.62-5.6,17.12-5.6s12.69,2.72,17.12,5.6c4.85,3.15,9.86,6.4,19.84,6.4s15-3.25,19.85-6.4c4.43-2.88,8.62-5.6,17.12-5.6s12.69,2.72,17.12,5.6c2.05,1.33,4.14,2.68,6.61,3.8.77-1.49,1.49-3,2.16-4.52-2.22-.98-4.11-2.21-6.05-3.47Z"/>
                <path class="cls-1" d="m701.75,90.16c-4.85-3.15-9.86-6.4-19.85-6.4s-15,3.25-19.85,6.4c-4.43,2.88-8.62,5.6-17.12,5.6s-12.69-2.72-17.12-5.6c-4.85-3.15-9.86-6.4-19.84-6.4s-15,3.25-19.85,6.4c-4.43,2.88-8.62,5.6-17.12,5.6s-12.69-2.72-17.12-5.6c-4.85-3.15-9.86-6.4-19.84-6.4s-15,3.25-19.84,6.4c-4.43,2.88-8.62,5.6-17.12,5.6s-12.69-2.72-17.12-5.6c-4.85-3.15-9.86-6.4-19.84-6.4s-14.99,3.25-19.84,6.4c-4.15,2.69-8.09,5.25-15.55,5.56,1.01,1.6,2.08,3.19,3.2,4.75,6.94-.85,11.07-3.52,15.07-6.12,4.43-2.88,8.62-5.6,17.12-5.6s12.69,2.72,17.12,5.6c4.85,3.15,9.86,6.4,19.84,6.4s15-3.25,19.84-6.4c4.43-2.88,8.62-5.6,17.12-5.6s12.69,2.72,17.12,5.6c4.85,3.15,9.86,6.4,19.84,6.4s15-3.25,19.84-6.4c4.43-2.88,8.62-5.6,17.12-5.6s12.69,2.72,17.12,5.6c4.85,3.15,9.86,6.4,19.84,6.4s15-3.25,19.85-6.4c4.43-2.88,8.62-5.6,17.12-5.6s12.69,2.72,17.12,5.6c.84.55,1.69,1.09,2.57,1.63.9-1.42,1.76-2.85,2.57-4.29-.81-.49-1.61-1.01-2.41-1.53Z"/>
                <path class="cls-1" d="m681.9,92.98c-9.98,0-15,3.25-19.85,6.4-4.43,2.88-8.62,5.6-17.12,5.6s-12.69-2.72-17.12-5.6c-4.85-3.15-9.86-6.4-19.84-6.4s-15,3.25-19.85,6.4c-4.43,2.88-8.62,5.6-17.12,5.6s-12.69-2.72-17.12-5.6c-4.85-3.15-9.86-6.4-19.84-6.4s-15,3.25-19.84,6.4c-4.43,2.88-8.62,5.6-17.12,5.6s-12.69-2.72-17.12-5.6c-4.85-3.15-9.86-6.4-19.84-6.4s-14.99,3.25-19.84,6.4c-2.89,1.88-5.68,3.68-9.63,4.71,1.12,1.41,2.27,2.81,3.48,4.18,3.52-1.24,6.22-2.98,8.87-4.7,4.43-2.88,8.62-5.6,17.12-5.6s12.69,2.72,17.12,5.6c4.85,3.15,9.86,6.4,19.84,6.4s15-3.25,19.84-6.4c4.43-2.88,8.62-5.6,17.12-5.6s12.69,2.72,17.12,5.6c4.85,3.15,9.86,6.4,19.84,6.4s15-3.25,19.84-6.4c4.43-2.88,8.62-5.6,17.12-5.6s12.69,2.72,17.12,5.6c4.85,3.15,9.86,6.4,19.84,6.4s15-3.25,19.85-6.4c4.43-2.88,8.62-5.6,17.12-5.6,7.31,0,11.43,2.01,15.25,4.4,1.01-1.34,1.99-2.7,2.92-4.07-4.38-2.77-9.33-5.32-18.17-5.32Z"/>
                <path class="cls-1" d="m681.9,102.21c-9.98,0-15,3.25-19.85,6.4-4.43,2.88-8.62,5.6-17.12,5.6s-12.69-2.72-17.12-5.6c-4.85-3.15-9.86-6.4-19.84-6.4s-15,3.25-19.85,6.4c-4.43,2.88-8.62,5.6-17.12,5.6s-12.69-2.72-17.12-5.6c-4.85-3.15-9.86-6.4-19.84-6.4s-15,3.25-19.84,6.4c-4.43,2.88-8.62,5.6-17.12,5.6s-12.69-2.72-17.12-5.6c-4.85-3.15-9.86-6.4-19.84-6.4s-14.99,3.25-19.84,6.4c-1.23.8-2.45,1.59-3.75,2.31,1.17,1.25,2.37,2.48,3.61,3.69.98-.59,1.92-1.2,2.85-1.81,4.43-2.88,8.62-5.6,17.12-5.6s12.69,2.72,17.12,5.6c4.85,3.15,9.86,6.4,19.84,6.4s15-3.25,19.84-6.4c4.43-2.88,8.62-5.6,17.12-5.6s12.69,2.72,17.12,5.6c4.85,3.15,9.86,6.4,19.84,6.4s15-3.25,19.84-6.4c4.43-2.88,8.62-5.6,17.12-5.6s12.69,2.72,17.12,5.6c4.85,3.15,9.86,6.4,19.84,6.4s15-3.25,19.85-6.4c4.43-2.88,8.62-5.6,17.12-5.6,4.17,0,7.3.66,9.93,1.66,1.17-1.32,2.31-2.66,3.4-4.01-3.39-1.54-7.51-2.65-13.32-2.65Z"/>
                <path class="cls-1" d="m681.9,111.43c-9.98,0-15,3.25-19.85,6.4-4.43,2.88-8.62,5.6-17.12,5.6s-12.69-2.72-17.12-5.6c-4.85-3.15-9.86-6.4-19.84-6.4s-15,3.25-19.85,6.4c-4.43,2.88-8.62,5.6-17.12,5.6s-12.69-2.72-17.12-5.6c-4.85-3.15-9.86-6.4-19.84-6.4s-15,3.25-19.84,6.4c-4.43,2.88-8.62,5.6-17.12,5.6s-12.69-2.72-17.12-5.6c-4.85-3.15-9.86-6.4-19.84-6.4-8.66,0-13.58,2.45-17.9,5.16,1.27,1.18,2.58,2.34,3.92,3.48,3.5-2.04,7.47-3.63,13.98-3.63,8.5,0,12.69,2.72,17.12,5.6,4.85,3.15,9.86,6.4,19.84,6.4s15-3.25,19.84-6.4c4.43-2.88,8.62-5.6,17.12-5.6s12.69,2.72,17.12,5.6c4.85,3.15,9.86,6.4,19.84,6.4s15-3.25,19.84-6.4c4.43-2.88,8.62-5.6,17.12-5.6s12.69,2.72,17.12,5.6c4.85,3.15,9.86,6.4,19.84,6.4s15-3.25,19.85-6.4c4.43-2.88,8.62-5.6,17.12-5.6.86,0,1.66.03,2.44.09,1.57-1.46,3.08-2.94,4.54-4.46-2.04-.39-4.33-.63-6.97-.63Z"/>
                <path class="cls-1" d="m644.93,132.66c-8.5,0-12.69-2.72-17.12-5.6-4.85-3.15-9.86-6.4-19.84-6.4s-15,3.25-19.85,6.4c-4.43,2.88-8.62,5.6-17.12,5.6s-12.69-2.72-17.12-5.6c-4.85-3.15-9.86-6.4-19.84-6.4s-15,3.25-19.84,6.4c-4.43,2.88-8.62,5.6-17.12,5.6s-12.69-2.72-17.12-5.6c-4.85-3.15-9.86-6.4-19.84-6.4-4.62,0-8.17.7-11.14,1.76,1.62,1.3,3.28,2.57,4.99,3.81,1.79-.36,3.8-.57,6.15-.57,8.5,0,12.69,2.72,17.12,5.6,4.85,3.15,9.86,6.4,19.84,6.4s15-3.25,19.84-6.4c4.43-2.88,8.62-5.6,17.12-5.6s12.69,2.72,17.12,5.6c4.85,3.15,9.86,6.4,19.84,6.4s15-3.25,19.84-6.4c4.43-2.88,8.62-5.6,17.12-5.6s12.69,2.72,17.12,5.6c4.85,3.15,9.86,6.4,19.84,6.4s15-3.25,19.85-6.4c1.41-.92,2.8-1.82,4.31-2.62,3.68-2.51,7.17-5.15,10.47-7.91-8.45.47-13.05,3.44-17.51,6.33-4.43,2.88-8.62,5.6-17.12,5.6Z"/>
                <path class="cls-1" d="m627.81,136.28c-4.85-3.15-9.86-6.4-19.84-6.4s-15,3.25-19.85,6.4c-4.43,2.88-8.62,5.6-17.12,5.6s-12.69-2.72-17.12-5.6c-4.85-3.15-9.86-6.4-19.84-6.4s-15,3.25-19.84,6.4c-4.43,2.88-8.62,5.6-17.12,5.6s-12.69-2.72-17.12-5.6c-4.85-3.15-9.86-6.4-19.84-6.4-.29,0-.57.01-.85.02,3.93,2.59,8.05,5.03,12.36,7.32.8.37,1.56.77,2.3,1.2,5.99,3.06,12.32,5.82,18.94,8.25,1.3.14,2.69.22,4.2.22,9.98,0,15-3.25,19.84-6.4,4.43-2.88,8.62-5.6,17.12-5.6s12.69,2.72,17.12,5.6c4.85,3.15,9.86,6.4,19.84,6.4s15-3.25,19.84-6.4c4.43-2.88,8.62-5.6,17.12-5.6s12.69,2.72,17.12,5.6c3.12,2.03,6.32,4.09,10.86,5.31,3.21-1.23,6.35-2.53,9.41-3.92-.14,0-.28,0-.43,0-8.5,0-12.69-2.72-17.12-5.6Z"/>
                <path class="cls-1" d="m607.96,144.1c8.4,0,12.59,2.66,16.97,5.5,2.08-.65,4.14-1.33,6.17-2.04-1.13-.65-2.2-1.35-3.29-2.05-4.85-3.15-9.86-6.4-19.84-6.4s-15,3.25-19.85,6.4c-4.43,2.88-8.62,5.6-17.12,5.6s-12.69-2.72-17.12-5.6c-4.85-3.15-9.86-6.4-19.84-6.4s-15,3.25-19.84,6.4c-3.02,1.96-5.93,3.85-10.17,4.85,2.68.79,5.4,1.53,8.15,2.22,1.69-.9,3.22-1.89,4.74-2.88,4.43-2.88,8.62-5.6,17.12-5.6s12.69,2.72,17.12,5.6c4.85,3.15,9.86,6.4,19.84,6.4s15-3.25,19.84-6.4c4.43-2.88,8.62-5.6,17.12-5.6Z"/>
                <path class="cls-1" d="m607.96,148.33c-9.98,0-15,3.25-19.85,6.4-1.72,1.12-3.41,2.21-5.33,3.13,4.11-.37,8.17-.86,12.17-1.45,3.27-1.77,7.09-3.08,13-3.08.97,0,1.89.04,2.75.11,3.45-.79,6.85-1.67,10.19-2.63-3.32-1.45-7.35-2.47-12.94-2.47Z"/>
                <path class="cls-1" d="m553.87,154.73c-4.85-3.15-9.86-6.4-19.84-6.4-8.69,0-13.61,2.47-17.94,5.18,2.54.58,5.11,1.11,7.7,1.6,2.7-1.07,5.91-1.78,10.24-1.78,7.93,0,12.1,2.37,16.23,5.02,3.62.21,7.27.34,10.95.37-2.8-1.05-5.04-2.5-7.34-3.99Z"/>
              </g>
            </g>
          </g>
        </g>
      </g>
    </g>
  </g>
  <text class="cls-2" transform="translate(215.86 210.54)"><tspan class="cls-9" x="0" y="0">F</tspan><tspan x="33.21" y="0">o</tspan><tspan class="cls-3" x="67.07" y="0">t</tspan><tspan x="87.97" y="0">og</tspan><tspan class="cls-8" x="158.81" y="0">r</tspan><tspan class="cls-5" x="177.93" y="0">afía </tspan></text>
</svg>